<svg enable-background="new 0 0 180 55" height="55" viewBox="0 0 180 55" width="180" xmlns="http://www.w3.org/2000/svg">
    <path d="m180 49.486c0 3.045-2.318 5.514-5.185 5.514h-169.625c-2.865 0-5.19-2.469-5.19-5.514v-43.966c0-3.044 2.325-5.52 5.19-5.52h169.625c2.866 0 5.184 2.476 5.184 5.52z"/>
    <g fill="#fff">
        <path d="m39.527 27.216c-.039-4.353 3.567-6.471 3.732-6.57-2.043-2.975-5.209-3.381-6.321-3.414-2.659-.28-5.239 1.59-6.595 1.59-1.381 0-3.467-1.562-5.715-1.517-2.894.045-5.6 1.718-7.084 4.317-3.062 5.298-.778 13.083 2.156 17.367 1.468 2.101 3.184 4.439 5.43 4.357 2.196-.09 3.019-1.398 5.668-1.398 2.628 0 3.398 1.398 5.688 1.347 2.357-.037 3.843-2.106 5.259-4.224 1.697-2.403 2.377-4.772 2.405-4.895-.055-.02-4.578-1.743-4.623-6.96z"/>
        <path d="m35.201 14.415c1.182-1.476 1.99-3.484 1.766-5.523-1.71.076-3.849 1.182-5.08 2.626-1.09 1.271-2.062 3.357-1.812 5.318 1.921.144 3.893-.968 5.126-2.421z"/>
        <path d="m71.321 43.045h-3.07l-1.682-5.279h-5.847l-1.602 5.279h-2.989l5.792-17.974h3.577zm-5.26-7.494-1.521-4.693c-.16-.479-.462-1.608-.907-3.387h-.054c-.177.766-.462 1.895-.854 3.387l-1.493 4.693z"/>
        <path d="m86.215 36.404c0 2.205-.596 3.946-1.789 5.227-1.068 1.139-2.395 1.708-3.977 1.708-1.709 0-2.938-.612-3.686-1.839h-.053v6.826h-2.882v-13.976c0-1.385-.037-2.807-.107-4.265h2.535l.161 2.054h.054c.961-1.548 2.42-2.32 4.377-2.32 1.531 0 2.809.604 3.831 1.812 1.025 1.21 1.536 2.801 1.536 4.773zm-2.936.106c0-1.26-.284-2.302-.854-3.12-.624-.853-1.46-1.278-2.51-1.278-.711 0-1.357.236-1.935.707-.579.472-.957 1.09-1.135 1.854-.089.355-.134.646-.134.877v2.162c0 .941.29 1.736.868 2.387.579.648 1.33.975 2.255.975 1.085 0 1.931-.42 2.534-1.254.608-.838.911-1.941.911-3.31z"/>
        <path d="m101.136 36.404c0 2.205-.597 3.946-1.79 5.227-1.066 1.139-2.393 1.708-3.977 1.708-1.708 0-2.938-.612-3.683-1.839h-.055v6.826h-2.883v-13.976c0-1.385-.037-2.807-.106-4.265h2.534l.162 2.054h.054c.961-1.548 2.42-2.32 4.378-2.32 1.527 0 2.808.604 3.83 1.812 1.025 1.21 1.536 2.801 1.536 4.773zm-2.936.106c0-1.26-.285-2.302-.855-3.12-.623-.853-1.457-1.278-2.508-1.278-.713 0-1.356.236-1.936.707-.579.472-.956 1.09-1.134 1.854-.089.355-.135.646-.135.877v2.162c0 .941.289 1.736.866 2.387.578.646 1.329.975 2.258.975 1.085 0 1.931-.42 2.534-1.254.606-.838.91-1.941.91-3.31z"/>
        <path d="m117.819 38.003c0 1.53-.53 2.774-1.599 3.733-1.17 1.049-2.803 1.573-4.899 1.573-1.938 0-3.488-.373-4.663-1.12l.668-2.398c1.265.765 2.653 1.148 4.167 1.148 1.085 0 1.931-.246 2.536-.736.605-.488.906-1.146.906-1.963 0-.729-.248-1.344-.746-1.844-.497-.496-1.327-.959-2.482-1.389-3.15-1.174-4.725-2.895-4.725-5.154 0-1.477.553-2.688 1.655-3.632 1.102-.943 2.569-1.415 4.403-1.415 1.639 0 2.998.285 4.083.853l-.72 2.348c-1.014-.551-2.161-.827-3.445-.827-1.013 0-1.805.25-2.373.747-.479.443-.72.986-.72 1.628 0 .71.272 1.298.825 1.761.479.426 1.352.889 2.617 1.387 1.55.623 2.686 1.352 3.416 2.185s1.096 1.873 1.096 3.115z"/>
        <path d="m127.35 32.244h-3.178v6.293c0 1.601.561 2.399 1.684 2.399.514 0 .941-.044 1.279-.133l.08 2.187c-.568.213-1.315.318-2.242.318-1.139 0-2.027-.347-2.67-1.041-.641-.693-.961-1.857-.961-3.494v-6.531h-1.894v-2.16h1.894v-2.374l2.83-.853v3.227h3.178z"/>
        <path d="m141.684 36.457c0 1.992-.569 3.628-1.709 4.906-1.193 1.316-2.778 1.975-4.754 1.975-1.902 0-3.418-.633-4.549-1.893-1.131-1.263-1.695-2.854-1.695-4.772 0-2.009.582-3.654 1.748-4.933 1.164-1.281 2.734-1.922 4.709-1.922 1.904 0 3.437.633 4.592 1.896 1.107 1.225 1.658 2.805 1.658 4.743zm-2.992.094c0-1.195-.255-2.221-.771-3.075-.605-1.034-1.471-1.55-2.59-1.55-1.158 0-2.039.518-2.642 1.55-.521.856-.774 1.897-.774 3.13 0 1.195.254 2.221.774 3.072.622 1.035 1.491 1.553 2.616 1.553 1.101 0 1.964-.527 2.589-1.578.532-.872.798-1.909.798-3.102z"/>
        <path d="m151.051 32.615c-.283-.053-.586-.078-.906-.078-1.014 0-1.799.382-2.35 1.146-.481.678-.722 1.529-.722 2.561v6.801h-2.882l.025-8.879c0-1.493-.035-2.854-.106-4.08h2.511l.105 2.479h.08c.305-.852.783-1.539 1.44-2.054.642-.463 1.337-.692 2.083-.692.268 0 .508.019.721.053v2.743z"/>
        <path d="m163.943 35.949c0 .518-.034.953-.104 1.308h-8.648c.033 1.28.451 2.261 1.254 2.937.729.604 1.672.904 2.83.904 1.277 0 2.449-.203 3.498-.611l.453 1.998c-1.23.533-2.678.801-4.352.801-2.012 0-3.591-.59-4.74-1.771-1.146-1.184-1.721-2.771-1.721-4.76 0-1.955.534-3.583 1.604-4.88 1.121-1.386 2.634-2.079 4.535-2.079 1.871 0 3.287.693 4.248 2.079.762 1.098 1.143 2.459 1.143 4.074zm-2.748-.744c.02-.855-.169-1.592-.561-2.215-.498-.801-1.266-1.2-2.297-1.2-.942 0-1.709.391-2.295 1.174-.479.622-.765 1.37-.854 2.239h6.005z"/>
        <path d="m65.108 14.013c0 1.59-.478 2.787-1.431 3.59-.883.741-2.137 1.113-3.763 1.113-.806 0-1.495-.036-2.073-.106v-8.684c.753-.122 1.564-.183 2.44-.183 1.549 0 2.715.336 3.502 1.008.883.76 1.325 1.847 1.325 3.262zm-1.494.04c0-1.03-.272-1.821-.819-2.371-.546-.55-1.343-.826-2.395-.826-.446 0-.826.03-1.142.092v6.603c.174.027.493.04.957.04 1.083 0 1.921-.301 2.51-.904.592-.603.889-1.481.889-2.634z"/>
        <path d="m73.03 15.403c0 .979-.28 1.781-.839 2.41-.587.647-1.365.97-2.335.97-.937 0-1.682-.309-2.236-.93-.555-.62-.832-1.402-.832-2.344 0-.987.285-1.795.858-2.424.573-.628 1.344-.942 2.314-.942.936 0 1.688.31 2.256.93.542.601.814 1.378.814 2.33zm-1.471.045c0-.588-.126-1.091-.379-1.511-.298-.507-.721-.761-1.271-.761-.569 0-1.002.254-1.299.761-.254.42-.38.932-.38 1.537 0 .587.127 1.091.38 1.511.307.508.733.762 1.285.762.542 0 .966-.258 1.271-.775.263-.429.393-.937.393-1.524z"/>
        <path d="m83.651 12.271-1.995 6.367h-1.298l-.826-2.765c-.209-.69-.38-1.376-.512-2.057h-.026c-.123.7-.293 1.385-.512 2.057l-.877 2.765h-1.313l-1.875-6.367h1.456l.721 3.027c.174.716.317 1.398.434 2.043h.024c.106-.532.28-1.21.526-2.03l.905-3.039h1.153l.867 2.974c.209.725.379 1.424.511 2.096h.039c.098-.654.241-1.353.434-2.096l.772-2.974z"/>
        <path d="m90.996 18.638h-1.417v-3.646c0-1.124-.427-1.686-1.284-1.686-.42 0-.76.154-1.023.463-.261.309-.394.674-.394 1.09v3.777h-1.416v-4.545c0-.56-.018-1.166-.052-1.822h1.245l.065.996h.039c.166-.309.412-.565.734-.769.384-.238.813-.358 1.285-.358.595 0 1.089.192 1.481.576.49.472.734 1.176.734 2.11z"/>
        <path d="m94.902 18.638h-1.415v-9.288h1.415z"/>
        <path d="m103.244 15.403c0 .979-.28 1.781-.84 2.41-.586.647-1.365.97-2.335.97-.938 0-1.682-.309-2.236-.93-.555-.62-.831-1.402-.831-2.344 0-.987.284-1.795.858-2.424.573-.628 1.344-.942 2.312-.942.938 0 1.688.31 2.26.93.539.601.812 1.378.812 2.33zm-1.471.045c0-.588-.127-1.091-.381-1.511-.297-.507-.722-.761-1.27-.761-.571 0-1.003.254-1.301.761-.253.42-.378.932-.378 1.537 0 .587.127 1.091.378 1.511.308.508.735.762 1.286.762.542 0 .964-.258 1.271-.775.265-.429.395-.937.395-1.524z"/>
        <path d="m110.101 18.638h-1.272l-.105-.733h-.038c-.435.585-1.056.877-1.861.877-.603 0-1.089-.192-1.454-.577-.333-.348-.499-.781-.499-1.296 0-.777.324-1.371.979-1.781.651-.411 1.567-.612 2.748-.602v-.12c0-.838-.438-1.257-1.323-1.257-.63 0-1.185.158-1.661.471l-.288-.93c.591-.366 1.322-.549 2.187-.549 1.666 0 2.5.878 2.5 2.634v2.344c-.005.637.026 1.143.087 1.519zm-1.47-2.188v-.982c-1.562-.027-2.345.401-2.345 1.284 0 .333.09.58.271.746.184.167.415.249.692.249.312 0 .601-.098.865-.294.267-.197.431-.447.491-.753.018-.07.026-.154.026-.25z"/>
        <path d="m118.152 18.638h-1.258l-.065-1.023h-.04c-.4.778-1.085 1.167-2.046 1.167-.769 0-1.405-.301-1.914-.903-.507-.603-.761-1.384-.761-2.345 0-1.03.274-1.865.827-2.502.532-.595 1.188-.891 1.967-.891.854 0 1.454.288 1.796.864h.025v-3.655h1.418v7.573c.001.62.017 1.191.051 1.715zm-1.468-2.685v-1.061c0-.184-.014-.332-.039-.445-.079-.34-.252-.627-.514-.858-.264-.231-.58-.347-.947-.347-.527 0-.941.209-1.246.63-.301.419-.454.956-.454 1.611 0 .629.146 1.14.437 1.533.307.418.721.627 1.238.627.464 0 .837-.173 1.12-.523.27-.324.405-.713.405-1.167z"/>
        <path d="m130.27 15.403c0 .979-.279 1.781-.84 2.41-.586.647-1.362.97-2.334.97-.936 0-1.681-.309-2.236-.93-.555-.62-.831-1.402-.831-2.344 0-.987.284-1.795.856-2.424.572-.628 1.345-.942 2.315-.942.935 0 1.688.31 2.254.93.544.601.816 1.378.816 2.33zm-1.469.045c0-.588-.127-1.091-.381-1.511-.298-.507-.721-.761-1.271-.761-.568 0-1 .254-1.299.761-.256.42-.379.932-.379 1.537 0 .587.127 1.091.379 1.511.307.508.732.762 1.285.762.541 0 .967-.258 1.271-.775.264-.429.395-.937.395-1.524z"/>
        <path d="m137.887 18.638h-1.416v-3.646c0-1.124-.428-1.686-1.285-1.686-.42 0-.76.154-1.021.463s-.394.674-.394 1.09v3.777h-1.419v-4.545c0-.56-.016-1.166-.049-1.822h1.242l.066.996h.04c.167-.309.411-.565.733-.769.386-.238.812-.358 1.285-.358.596 0 1.09.192 1.48.576.492.472.734 1.176.734 2.11v3.814z"/>
        <path d="m147.424 13.331h-1.561v3.093c0 .786.275 1.179.825 1.179.254 0 .464-.022.63-.066l.037 1.073c-.279.106-.646.158-1.1.158-.561 0-.996-.17-1.312-.511s-.472-.913-.472-1.716v-3.21h-.934v-1.06h.934v-1.167l1.389-.418v1.584h1.561v1.061z"/>
        <path d="m154.924 18.638h-1.418v-3.62c0-1.141-.429-1.712-1.283-1.712-.656 0-1.105.331-1.353.993-.042.14-.065.309-.065.509v3.829h-1.414v-9.287h1.414v3.837h.026c.445-.698 1.085-1.046 1.915-1.046.586 0 1.071.192 1.457.576.48.479.721 1.193.721 2.135z"/>
        <path d="m162.66 15.154c0 .254-.018.468-.053.642h-4.248c.02.629.222 1.108.613 1.44.359.298.822.446 1.392.446.629 0 1.203-.101 1.718-.302l.223.983c-.604.262-1.314.393-2.139.393-.986 0-1.764-.29-2.326-.871-.564-.581-.846-1.36-.846-2.337 0-.96.262-1.76.787-2.397.549-.681 1.29-1.021 2.229-1.021.916 0 1.612.34 2.082 1.021.381.54.568 1.209.568 2.003zm-1.351-.366c.011-.42-.082-.782-.274-1.087-.246-.393-.62-.59-1.128-.59-.462 0-.84.191-1.128.577-.233.307-.374.673-.419 1.101z"/>
    </g>
</svg>