<svg enable-background="new 0 0 180 55" height="55" viewBox="0 0 180 55" width="180" xmlns="http://www.w3.org/2000/svg">
    <path d="m173.33 55h-166.66c-3.667 0-6.667-3.094-6.667-6.875v-41.25c0-3.781 3-6.875 6.667-6.875h166.66c3.666 0 6.666 3.094 6.666 6.875v41.25c0 3.781-3 6.875-6.666 6.875"
          fill="#100f0d"/>
    <path d="m27.622 26.73-14.194 15.067c0 .003.001.006.002.01.435 1.635 1.93 2.84 3.703 2.84.708 0 1.375-.19 1.945-.528l.045-.025 15.978-9.221z"
          fill="#eb3131"/>
    <path d="m41.983 24.166-.014-.009-6.898-3.999-7.772 6.916 7.799 7.798 6.862-3.96c1.203-.648 2.02-1.917 2.02-3.38-.001-1.452-.806-2.715-1.997-3.366"
          fill="#f6b60b"/>
    <path d="m13.426 13.202c-.085.313-.13.644-.13.985v26.623c0 .342.044.674.131.986l14.683-14.68z" fill="#5778c5"/>
    <path d="m27.727 27.5 7.347-7.345-15.96-9.254c-.58-.347-1.257-.548-1.981-.548-1.773 0-3.27 1.207-3.705 2.846-.001.001-.001.003-.001.004z"
          fill="#3bad49"/>
    <g fill="#fff">
        <path d="m71.047 27.397c0 3.095-.928 5.421-2.781 6.986-1.717 1.441-4.159 2.166-7.321 2.166-1.568 0-2.909-.068-4.032-.205v-16.9c1.465-.237 3.044-.356 4.747-.356 3.013 0 5.282.654 6.813 1.961 1.714 1.48 2.574 3.596 2.574 6.348zm-2.906.077c0-2.004-.529-3.542-1.594-4.613-1.062-1.069-2.613-1.606-4.659-1.606-.868 0-1.606.059-2.219.18v12.847c.337.051.96.076 1.861.076 2.108 0 3.737-.588 4.884-1.762 1.148-1.17 1.727-2.878 1.727-5.122z"/>
        <path d="m86.458 30.1c0 1.906-.544 3.467-1.632 4.689-1.142 1.258-2.654 1.885-4.543 1.885-1.82 0-3.27-.602-4.35-1.809-1.08-1.205-1.618-2.727-1.618-4.561 0-1.92.554-3.493 1.669-4.716 1.116-1.222 2.615-1.833 4.504-1.833 1.819 0 3.284.602 4.39 1.809 1.05 1.172 1.58 2.686 1.58 4.536zm-2.86.088c0-1.143-.246-2.121-.737-2.94-.579-.986-1.403-1.481-2.472-1.481-1.107 0-1.95.495-2.527 1.481-.496.819-.739 1.813-.739 2.991 0 1.141.248 2.123.739 2.939.597.988 1.427 1.484 2.5 1.484 1.053 0 1.879-.504 2.475-1.51.507-.832.761-1.822.761-2.964z"/>
        <path d="m107.121 24.008-3.88 12.389h-2.526l-1.605-5.381c-.406-1.34-.739-2.676-.997-4.001h-.05c-.24 1.361-.571 2.694-.997 4.001l-1.707 5.381h-2.555l-3.646-12.389h2.833l1.402 5.891c.338 1.391.617 2.719.842 3.975h.049c.206-1.037.544-2.354 1.022-3.951l1.76-5.911h2.246l1.687 5.784c.406 1.41.738 2.771.994 4.078h.075c.188-1.271.47-2.631.843-4.078l1.504-5.784h2.707v-.004z"/>
        <path d="m121.412 36.396h-2.758v-7.096c0-2.187-.831-3.279-2.497-3.279-.818 0-1.479.299-1.993.902-.506.601-.764 1.311-.764 2.121v7.348h-2.756v-8.845c0-1.088-.035-2.267-.101-3.545h2.422l.129 1.937h.076c.322-.601.801-1.099 1.428-1.495.749-.463 1.586-.696 2.501-.696 1.157 0 2.118.373 2.884 1.121.954.917 1.43 2.288 1.43 4.106z"/>
        <path d="m129.011 36.396h-2.753v-18.071h2.753z"/>
        <path d="m145.24 30.1c0 1.906-.546 3.467-1.635 4.689-1.14 1.258-2.656 1.885-4.542 1.885-1.822 0-3.27-.602-4.351-1.809-1.079-1.205-1.617-2.727-1.617-4.561 0-1.92.553-3.493 1.67-4.716s2.614-1.833 4.499-1.833c1.824 0 3.283.602 4.396 1.809 1.05 1.172 1.58 2.686 1.58 4.536zm-2.862.088c0-1.143-.246-2.121-.738-2.94-.578-.986-1.404-1.481-2.47-1.481-1.111 0-1.951.495-2.531 1.481-.491.819-.734 1.813-.734 2.991 0 1.141.246 2.123.734 2.939.599.988 1.434 1.484 2.503 1.484 1.055 0 1.875-.504 2.474-1.51.51-.832.762-1.822.762-2.964z"/>
        <path d="m158.581 36.396h-2.477l-.206-1.428h-.074c-.847 1.139-2.054 1.707-3.624 1.707-1.17 0-2.117-.373-2.828-1.121-.648-.676-.971-1.521-.971-2.523 0-1.512.63-2.666 1.902-3.465 1.268-.799 3.051-1.191 5.347-1.172v-.233c0-1.63-.855-2.445-2.575-2.445-1.224 0-2.303.307-3.232.917l-.561-1.809c1.15-.712 2.573-1.068 4.255-1.068 3.241 0 4.863 1.708 4.863 5.125v4.561c0 1.238.062 2.222.181 2.954zm-2.862-4.257v-1.912c-3.041-.051-4.562.781-4.562 2.498 0 .646.175 1.131.528 1.453.355.322.808.482 1.347.482.605 0 1.169-.191 1.684-.574.519-.379.837-.865.956-1.463.033-.137.047-.299.047-.484z"/>
        <path d="m174.244 36.396h-2.448l-.127-1.99h-.078c-.779 1.512-2.11 2.27-3.98 2.27-1.495 0-2.735-.586-3.723-1.756-.986-1.174-1.48-2.691-1.48-4.562 0-2.006.535-3.63 1.609-4.869 1.035-1.157 2.309-1.734 3.826-1.734 1.664 0 2.829.559 3.492 1.681h.051v-7.11h2.761v14.736c.001 1.204.031 2.313.097 3.334zm-2.857-5.226v-2.063c0-.356-.026-.646-.076-.867-.153-.662-.488-1.219-.997-1.67-.514-.449-1.13-.675-1.843-.675-1.028 0-1.833.407-2.426 1.225-.586.816-.885 1.859-.885 3.137 0 1.223.284 2.215.851 2.98.597.816 1.402 1.223 2.409 1.223.902 0 1.628-.338 2.18-1.018.524-.631.787-1.387.787-2.272z"/>
    </g>
</svg>