<svg enable-background="new 0 0 180 55" height="55" viewBox="0 0 180 55" width="180" xmlns="http://www.w3.org/2000/svg"><path d="m173.33 55h-166.66c-3.667 0-6.667-3.094-6.667-6.875v-41.25c0-3.781 3-6.875 6.667-6.875h166.66c3.666 0 6.666 3.094 6.666 6.875v41.25c0 3.781-3 6.875-6.666 6.875" fill="#100f0d"/><path d="m142.58 40.833h2.488v-16.669h-2.488zm22.408-10.664-2.852 7.227h-.086l-2.96-7.227h-2.68l4.438 10.1-2.531 5.619h2.595l6.842-15.719zm-14.109 8.769c-.812 0-1.951-.406-1.951-1.414 0-1.287 1.416-1.78 2.639-1.78 1.094 0 1.608.235 2.272.56-.193 1.541-1.523 2.634-2.96 2.634zm.301-9.134c-1.801 0-3.666.795-4.438 2.553l2.207.922c.473-.922 1.352-1.223 2.273-1.223 1.286 0 2.594.771 2.615 2.146v.172c-.449-.258-1.416-.644-2.595-.644-2.382 0-4.804 1.308-4.804 3.752 0 2.229 1.951 3.666 4.139 3.666 1.672 0 2.596-.75 3.173-1.629h.087v1.287h2.403v-6.392c.002-2.958-2.209-4.61-5.06-4.61zm-15.375 2.395h-3.539v-5.714h3.539c1.859 0 2.916 1.541 2.916 2.856 0 1.292-1.057 2.858-2.916 2.858zm-.065-8.034h-5.961v16.668h2.486v-6.314h3.475c2.758 0 5.469-1.996 5.469-5.178 0-3.179-2.711-5.176-5.469-5.176zm-32.508 14.777c-1.719 0-3.156-1.438-3.156-3.416 0-1.998 1.438-3.457 3.156-3.457 1.697 0 3.029 1.459 3.029 3.457.001 1.977-1.331 3.416-3.029 3.416zm2.858-7.839h-.086c-.559-.666-1.633-1.268-2.984-1.268-2.836 0-5.436 2.492-5.436 5.691 0 3.18 2.6 5.648 5.436 5.648 1.353 0 2.426-.602 2.984-1.287h.086v.813c0 2.171-1.16 3.33-3.027 3.33-1.524 0-2.471-1.097-2.856-2.019l-2.17.9c.623 1.504 2.276 3.352 5.026 3.352 2.922 0 5.392-1.719 5.392-5.908v-10.18h-2.363zm4.082 9.73h2.49v-16.669h-2.49zm6.164-5.5c-.064-2.191 1.698-3.309 2.965-3.309.988 0 1.825.494 2.105 1.203zm7.732-1.891c-.473-1.266-1.911-3.606-4.854-3.606-2.922 0-5.35 2.298-5.35 5.67 0 3.181 2.405 5.671 5.628 5.671 2.599 0 4.104-1.589 4.727-2.513l-1.933-1.289c-.646.944-1.524 1.567-2.794 1.567-1.268 0-2.169-.58-2.748-1.719l7.581-3.137zm-60.408-1.867v2.404h5.757c-.172 1.354-.623 2.343-1.311 3.029-.838.838-2.148 1.762-4.446 1.762-3.544 0-6.315-2.856-6.315-6.4s2.771-6.401 6.315-6.401c1.912 0 3.308.752 4.339 1.719l1.697-1.697c-1.439-1.375-3.351-2.427-6.036-2.427-4.855 0-8.936 3.953-8.936 8.807s4.081 8.808 8.936 8.808c2.62 0 4.597-.859 6.143-2.471 1.589-1.59 2.084-3.824 2.084-5.629 0-.557-.043-1.072-.129-1.503zm14.772 7.367c-1.719 0-3.201-1.418-3.201-3.438 0-2.041 1.482-3.436 3.201-3.436 1.718 0 3.201 1.395 3.201 3.436-.001 2.02-1.483 3.438-3.201 3.438zm0-9.107c-3.137 0-5.692 2.384-5.692 5.67 0 3.266 2.556 5.671 5.692 5.671s5.692-2.405 5.692-5.671c0-3.286-2.557-5.67-5.692-5.67zm12.418 9.107c-1.718 0-3.201-1.418-3.201-3.438 0-2.041 1.483-3.436 3.201-3.436 1.719 0 3.199 1.395 3.199 3.436 0 2.02-1.483 3.438-3.199 3.438zm0-9.107c-3.137 0-5.691 2.384-5.691 5.67 0 3.266 2.556 5.671 5.691 5.671 3.137 0 5.691-2.405 5.691-5.671 0-3.286-2.555-5.67-5.691-5.67" fill="#fff"/><path d="m27.622 26.732-14.194 15.066c0 .003.001.006.002.01.435 1.635 1.93 2.84 3.703 2.84.708 0 1.375-.19 1.945-.528l.045-.025 15.978-9.221z" fill="#eb3131"/><path d="m41.983 24.167-.014-.009-6.898-3.999-7.772 6.916 7.799 7.798 6.862-3.96c1.203-.648 2.02-1.917 2.02-3.38-.001-1.452-.806-2.714-1.997-3.366" fill="#f6b60b"/><path d="m13.426 13.203c-.085.314-.13.644-.13.986v26.623c0 .342.044.674.131.986l14.683-14.681z" fill="#5778c5"/><path d="m27.727 27.501 7.347-7.345-15.96-9.253c-.58-.347-1.257-.548-1.981-.548-1.773 0-3.27 1.207-3.705 2.845-.001.001-.001.003-.001.004z" fill="#3bad49"/><path d="m63.193 13.875h-3.889v.962h2.915c-.08.786-.392 1.402-.919 1.85s-1.2.673-1.996.673c-.873 0-1.613-.304-2.219-.908-.594-.617-.896-1.379-.896-2.298 0-.918.302-1.681.896-2.298.606-.604 1.346-.906 2.219-.906.448 0 .875.077 1.267.246.392.168.706.404.952.706l.739-.74c-.335-.381-.76-.673-1.288-.885-.527-.212-1.077-.314-1.671-.314-1.165 0-2.152.404-2.958 1.21-.806.808-1.21 1.804-1.21 2.981s.404 2.175 1.21 2.981 1.793 1.21 2.958 1.21c1.223 0 2.198-.392 2.948-1.188.66-.662.998-1.558.998-2.679 0-.188-.023-.39-.056-.603zm1.507-3.733v8.025h4.685v-.985h-3.654v-2.545h3.296v-.964h-3.296v-2.543h3.654v-.988zm11.255.987v-.987h-5.515v.988h2.242v7.037h1.031v-7.037zm4.992-.987h-1.031v8.025h1.031zm6.807.987v-.987h-5.515v.988h2.242v7.037h1.031v-7.037zm10.406.057c-.797-.819-1.771-1.223-2.936-1.223-1.166 0-2.143.404-2.938 1.21-.796.795-1.188 1.793-1.188 2.981s.393 2.186 1.188 2.981c.796.806 1.771 1.21 2.938 1.21 1.153 0 2.139-.404 2.936-1.21.795-.796 1.188-1.794 1.188-2.981 0-1.177-.393-2.173-1.188-2.968zm-5.133.67c.594-.604 1.322-.906 2.197-.906.873 0 1.602.302 2.186.906.594.594.885 1.369.885 2.298 0 .931-.291 1.704-.885 2.298-.584.604-1.312.908-2.186.908-.875 0-1.604-.304-2.197-.908-.582-.606-.873-1.367-.873-2.298 0-.929.291-1.692.873-2.298zm8.77 1.313-.043-1.548h.043l4.08 6.545h1.076v-8.024h-1.031v4.696l.044 1.548h-.044l-3.898-6.244h-1.258v8.025h1.031z" fill="#fff" stroke="#fff" stroke-miterlimit="10" stroke-width=".2667"/></svg>